<?xml version="1.0" encoding="utf-8"?>
<!-- Generator: Adobe Illustrator 26.5.0, SVG Export Plug-In . SVG Version: 6.00 Build 0)  -->
<svg version="1.1" id="Layer_1" xmlns="http://www.w3.org/2000/svg" xmlns:xlink="http://www.w3.org/1999/xlink" x="0px" y="0px"
	 viewBox="0 0 415.9 400.3" style="enable-background:new 0 0 415.9 400.3;" xml:space="preserve">
<style type="text/css">
	.st0{fill:#932958;}
	.st1{fill:#642C5B;}
	.st2{fill:#403462;}
	.st3{fill:#305B74;}
	.st4{fill:#309B81;}
	.st5{fill:#FFFFFF;}
</style>
<g id="Layer_3">
	<path class="st0" d="M285.1,0.1c2.5,2.3-51.7,67.2-162.8,194.9c39.5,7.8,79.1,15.6,118.6,23.5c-91,123.4-138.2,184-141.4,181.7
		c-3-2.1,32.2-59,105.8-170.8c-39-9.3-78-18.7-117-28C217,64.8,282.5-2.3,285.1,0.1z"/>
</g>
<g id="Layer_7">
	<path class="st1" d="M285.1,0.1c1.9,1.6-47,65.4-146.9,191.5c41.6,9,83.1,17.9,124.7,26.9c-106.2,123.4-160.7,184-163.4,181.7
		c-2.6-2.1,40-59,127.7-170.8c-39-9.3-78-18.7-117-28C224.9,65.5,283.1-1.6,285.1,0.1z"/>
</g>
<g id="Layer_6">
	<path class="st2" d="M285.1,0.1C243.1,63.9,201,127.8,158.9,191.6c41.6,9,83.1,17.9,124.7,26.9c-61.3,60.5-122.7,121.1-184,181.7
		c49.4-56.9,98.9-113.9,148.3-170.8c-39-9.3-78-18.7-117-28C182.2,134.3,233.8,67.2,285.1,0.1z"/>
</g>
<g id="Layer_5">
	<path class="st3" d="M285.1,0.1c2.6,1.6-32.2,65.4-104.5,191.5c41.6,9,83.1,17.9,124.7,26.9C170.1,341.7,101.4,402.3,99.5,400.2
		c-1.8-1.9,54.9-58.9,170.1-170.8c-39-9.3-78-18.7-117-28C238.2,65.5,282.5-1.6,285.1,0.1z"/>
</g>
<g id="Layer_4">
	<path class="st4" d="M285.1,0.1c3,1.5-24.4,65.3-82.3,191.5c41.6,9,83.1,17.9,124.7,26.9c-150.4,123-226.4,183.6-228,181.7
		c-1.5-1.8,62.6-58.7,192.3-170.8c-39-9.3-78-18.7-117-28C245.2,65.6,282-1.5,285.1,0.1z"/>
</g>
<g id="Layer_8">
	<path class="st5" d="M266.4,53.6c-31.1,46.7-62.1,93.4-93.2,140.2c30.5,6.7,60.9,13.4,91.4,20.1c-45.2,44.3-90.3,88.6-135.5,132.9
		c36.4-41.6,72.8-83.3,109.2-124.9c-28.6-6.9-57.2-13.9-85.8-20.9C228.4,102.8,266.2,53.7,266.4,53.6L266.4,53.6z"/>
</g>
</svg>
